<?xml version="1.0" encoding="utf-8"?>
<!-- Generator: Adobe Illustrator 18.0.0, SVG Export Plug-In . SVG Version: 6.00 Build 0)  -->
<!DOCTYPE svg PUBLIC "-//W3C//DTD SVG 1.1//EN" "http://www.w3.org/Graphics/SVG/1.1/DTD/svg11.dtd">
<svg version="1.1" id="Calque_1" xmlns="http://www.w3.org/2000/svg" xmlns:xlink="http://www.w3.org/1999/xlink" x="0px" y="0px"
	 width="792.1px" height="152.5px" viewBox="0 0 792.1 152.5" enable-background="new 0 0 792.1 152.5" xml:space="preserve">
<g>
	<path d="M124.7,59.3l-33.7,2.1c-0.5-19.4-8-29.1-22.7-29.1C51.4,32.3,43,47.3,43,77.2c0,17.3,2.3,29,6.9,35.1s11,9.2,19.2,9.2
		c13.3,0,21.5-8.7,24.4-26l31.2,1.9c-2,16.5-8.1,29-18.4,37.5c-10.2,8.6-22.8,12.8-37.6,12.8c-18.2,0-33-6.3-44.4-18.8
		C12.9,116.4,7.3,99,7.3,76.9c0-20.7,5.5-37.7,16.5-51c11-13.2,26.1-19.8,45.1-19.8C101.9,6.1,120.5,23.8,124.7,59.3z"/>
	<path d="M194.8,147.8c-18.5,0-32.8-6.9-43-20.8s-15.2-30.7-15.2-50.5c0-20.1,5.1-36.8,15.4-50.3C162.3,12.8,177,6.1,195.9,6.1
		c19.2,0,33.7,7.2,43.4,21.5c9.8,14.3,14.6,30.7,14.6,49.2c0,19.9-5,36.8-15.1,50.5C228.8,140.9,214.2,147.8,194.8,147.8z
		 M195.7,32.3c-16.9,0-25.3,14.8-25.3,44.5c0,29.7,8.4,44.6,25.3,44.6c16.4,0,24.5-14.8,24.5-44.5C220.3,47.2,212.1,32.3,195.7,32.3
		z"/>
	<path d="M385.9,59.3l-33.7,2.1c-0.5-19.4-8-29.1-22.7-29.1c-16.8,0-25.2,14.9-25.2,44.8c0,17.3,2.3,29,6.9,35.1s11,9.2,19.2,9.2
		c13.3,0,21.5-8.7,24.4-26l31.2,1.9c-2,16.5-8.1,29-18.4,37.5c-10.2,8.6-22.8,12.8-37.6,12.8c-18.2,0-33-6.3-44.4-18.8
		c-11.4-12.6-17.1-29.9-17.1-52.1c0-20.7,5.5-37.7,16.5-51c11-13.2,26.1-19.8,45.1-19.8C363.2,6.1,381.8,23.8,385.9,59.3z"/>
</g>
<g>
	<path d="M606.6,81v62.6h-12.5l-24.5-42.3c0,1.1,0.1,1.8,0.1,2.1c0.1,1.1,0.2,2,0.2,2.7v37.5h-11.4V81h15.8l21.3,36.9
		c-0.2-1.8-0.3-3.2-0.3-4.2V81H606.6z"/>
	<path d="M637.7,96.3c7.1,0,12.6,2.3,16.5,6.9c4,4.6,5.9,10.4,5.9,17.3c0,6.9-2.1,12.6-6.2,17.1c-4.1,4.6-9.6,6.9-16.4,6.9
		c-6.6,0-11.9-2.3-15.8-6.8c-4-4.5-5.9-10.3-5.9-17.4c0-4.9,0.9-9.1,2.7-12.5c1.8-3.4,4.2-6.2,7.4-8.3
		C629,97.4,632.9,96.3,637.7,96.3z M638.1,105.3c-2.6,0-4.5,1-5.9,3c-1.3,2-2,6-2,12c0,5.5,0.6,9.4,1.9,11.8
		c1.3,2.4,3.2,3.6,5.9,3.6c2.3,0,4.2-1,5.6-3.1c1.4-2,2.2-5.9,2.2-11.6c0-6.1-0.6-10.2-1.9-12.4
		C642.6,106.4,640.7,105.3,638.1,105.3z"/>
	<path d="M684.2,108v19.6c0,2.4,0.4,4.1,1.1,4.9c0.7,0.8,2.5,1.2,5.2,1.2c1.2,0,2.7-0.1,4.3-0.2v10.1c-4,0.7-6.8,1-8.6,1
		c-5.7,0-9.7-1.1-12.1-3.3c-2.4-2.2-3.6-6.1-3.6-11.9V108h-7.3V97.3h8.1l1.1-13.7l11.8-0.9v14.6h10V108H684.2z"/>
	<path d="M743,122.8h-29.8c0,0.8,0,1.5,0,2.2c0,3.3,0.9,5.8,2.6,7.5c1.8,1.7,3.9,2.5,6.3,2.5c4.6,0,7.3-2.4,8.2-7.3l12.4,0.9
		c-3.5,10.7-10.5,16.1-21.1,16.1c-4.6,0-8.5-0.9-11.8-2.8c-3.2-1.9-5.9-4.5-8-8.1c-2.1-3.5-3.1-7.8-3.1-12.8
		c0-7.4,2.1-13.3,6.3-17.8c4.2-4.5,9.6-6.8,16.2-6.8c6,0,11.1,2.1,15.3,6.3C740.8,106.9,743,113.6,743,122.8z M713.1,114.8h16.5
		c-0.4-6.4-3-9.5-7.8-9.5C716.6,105.3,713.7,108.5,713.1,114.8z"/>
	<path d="M786.3,108.5l-10,2.7c-1.2-4.2-4.2-6.3-9-6.3c-4.6,0-6.9,1.4-6.9,4.2c0,1.1,0.4,2,1.3,2.6c0.8,0.7,3,1.2,6.6,1.7
		c5.3,0.7,9.2,1.5,11.7,2.4c2.5,0.9,4.5,2.5,6,4.6c1.5,2.2,2.2,4.8,2.2,8c0,4.8-1.8,8.7-5.4,11.7c-3.6,3-8.7,4.5-15.2,4.5
		c-11.8,0-18.9-4.6-21.2-13.7l11.5-1.7c0.9,4.2,4.4,6.2,10.3,6.2c2.3,0,4.2-0.4,5.7-1.2c1.6-0.8,2.3-1.9,2.3-3.3
		c0-2.1-1.7-3.4-5.2-3.8c-9.4-1.2-15.5-2.9-18.5-5.4c-3-2.4-4.4-5.8-4.4-10.2c0-4.4,1.7-8,5.1-10.9c3.4-2.9,8.2-4.3,14.4-4.3
		c4.9,0,8.8,1,11.7,2.9C782.5,101.2,784.7,104.3,786.3,108.5z"/>
</g>
<path fill="#A97C50" stroke="#000000" stroke-width="10" stroke-miterlimit="10" d="M533.3,113.6c-26,30.9-72.1,34.8-103,8.9
	s-35-72.1-9-103C447.2-11.4,559.2,82.7,533.3,113.6z"/>
<ellipse transform="matrix(0.7739 0.6333 -0.6333 0.7739 148.5232 -288.707)" fill="#F1F2F2" stroke="#000000" stroke-width="5" stroke-miterlimit="10" cx="478.6" cy="63.7" rx="70.7" ry="25.2"/>
<ellipse transform="matrix(0.7739 0.6333 -0.6333 0.7739 148.5232 -288.707)" fill="#D1D3D4" cx="478.6" cy="63.7" rx="41.5" ry="14.8"/>
</svg>
